<?xml version="1.0" encoding="UTF-8"?>
<svg width="35px" height="40px" viewBox="0 0 35 40" version="1.1" xmlns="http://www.w3.org/2000/svg" xmlns:xlink="http://www.w3.org/1999/xlink">
    <!-- Generator: Sketch 46.2 (44496) - http://www.bohemiancoding.com/sketch -->
    <title>Page 1</title>
    <desc>Created with Sketch.</desc>
    <defs>
        <polygon id="path-1" points="0 38.7874973 0 0.317615499 34.3213889 0.317615499 34.3213889 38.7874973"></polygon>
        <polygon id="path-3" points="1.61375758 1.81818182 0.181030303 1.81818182 0.181030303 0.0990909091 1.61375758 0.0990909091 1.61375758 1.81818182"></polygon>
    </defs>
    <g id="introduce,policy,customer" stroke="none" stroke-width="1" fill="none" fill-rule="evenodd">
        <g id="introduce" transform="translate(-194.000000, -2325.000000)">
            <g id="Page-1" transform="translate(194.000000, 2325.000000)">
                <g id="Group-3">
                    <mask id="mask-2" fill="white">
                        <use xlink:href="#path-1"></use>
                    </mask>
                    <g id="Clip-2"></g>
                    <path d="M18.3185269,18.1908157 C20.0272475,18.1908157 21.4173822,19.5728723 21.4173822,21.2709548 C21.4173822,22.9696731 20.0272475,24.3517298 18.3185269,24.3517298 C16.6094865,24.3517298 15.2193519,22.9696731 15.2193519,21.2709548 C15.2193519,19.5728723 16.6094865,18.1908157 18.3185269,18.1908157 M26.0909343,33.0828177 L26.0909343,37.2846259 L23.5975842,37.2846259 L23.5975842,33.3482921 C23.5975842,32.933071 23.2591667,32.5966975 22.8414226,32.5966975 C22.4236785,32.5966975 22.0852609,32.933071 22.0852609,33.3482921 L22.0852609,37.2846259 L15.1860859,37.2846259 L15.1860859,33.3482921 C15.1860859,32.933071 14.8473485,32.5966975 14.4296044,32.5966975 C14.0121801,32.5966975 13.6734428,32.933071 13.6734428,33.3482921 L13.6734428,37.2846259 L11.0467088,37.2846259 L11.0467088,33.0828177 C11.0467088,29.0975221 14.4212879,25.854919 18.5689815,25.854919 C22.7163552,25.854919 26.0909343,29.0975221 26.0909343,33.0828177 M31.1687963,0.317551913 L3.15275253,0.317551913 C1.41428451,0.317551913 -0.00015993266,1.72345355 -0.00015993266,3.45142176 L-0.00015993266,16.4183368 C-0.00015993266,18.1459871 1.41428451,19.5518887 3.15275253,19.5518887 L4.29978956,19.5518887 L7.39896465,23.6840695 C7.73642256,24.1333095 8.24308923,24.3809796 8.77726431,24.3809796 C8.95830808,24.3809796 9.14255051,24.3523656 9.32455387,24.2935479 C10.0429714,24.0624103 10.5138131,23.4278152 10.5243687,22.6771744 L10.5675505,19.5518887 L14.0444865,19.5518887 C13.827298,20.0831555 13.7067088,20.663384 13.7067088,21.2709548 C13.7067088,22.7344024 14.4004966,24.0385653 15.4774832,24.8782275 C12.0136616,26.1009995 9.53406566,29.3172141 9.53406566,33.0828177 L9.53406566,37.284308 L5.00541246,37.284308 C4.58798822,37.284308 4.24925084,37.6206816 4.24925084,38.0359026 C4.24925084,38.4511237 4.58798822,38.7874973 5.00541246,38.7874973 L30.0089646,38.7874973 C30.4267088,38.7874973 30.7651263,38.4511237 30.7651263,38.0359026 C30.7651263,37.6206816 30.4267088,37.284308 30.0089646,37.284308 L27.6032576,37.284308 L27.6032576,33.0828177 C27.6032576,29.1897228 24.9525337,25.883533 21.3035101,24.7609101 C22.2976515,23.9199762 22.9300253,22.6679543 22.9300253,21.2712727 C22.9300253,18.7437019 20.8611364,16.6873085 18.3185269,16.6873085 C17.0384259,16.6873085 15.8789141,17.2090373 15.0424663,18.0486995 L9.82194444,18.0486995 C9.40835859,18.0486995 9.07122054,18.3790323 9.06578283,18.7901202 L9.01204545,22.6568266 C9.01012626,22.7874973 8.92760101,22.841546 8.8585101,22.8638013 C8.78941919,22.8860566 8.69058081,22.8905077 8.61189394,22.7855897 L5.28561448,18.3513721 C5.14295455,18.16093 4.91808923,18.0486995 4.6794697,18.0486995 L3.15275253,18.0486995 C2.2481734,18.0486995 1.51248316,17.3174526 1.51248316,16.4183368 L1.51248316,3.45142176 C1.51248316,2.55230601 2.2481734,1.82105912 3.15275253,1.82105912 L31.1687963,1.82105912 C32.0730556,1.82105912 32.8090657,2.55230601 32.8090657,3.45142176 L32.8090657,16.4183368 C32.8090657,17.3174526 32.0730556,18.0486995 31.1687963,18.0486995 L28.279133,18.0486995 C27.8613889,18.0486995 27.5226515,18.385073 27.5226515,18.8002941 C27.5226515,19.2155152 27.8613889,19.5518887 28.279133,19.5518887 L31.1687963,19.5518887 C32.9072643,19.5518887 34.3213889,18.146305 34.3213889,16.4183368 L34.3213889,3.45142176 C34.3217088,1.72345355 32.9072643,0.317551913 31.1687963,0.317551913" id="Fill-1" fill="#333333" mask="url(#mask-2)"></path>
                </g>
                <g id="Group-6" transform="translate(32.121212, 37.575758)">
                    <mask id="mask-4" fill="white">
                        <use xlink:href="#path-3"></use>
                    </mask>
                    <g id="Clip-5"></g>
                    <path d="M0.897393939,0.0990909091 C1.29284848,0.0990909091 1.61375758,0.483818182 1.61375758,0.958363636 C1.61375758,1.43327273 1.29284848,1.81836364 0.897393939,1.81836364 C0.501636364,1.81836364 0.181030303,1.43327273 0.181030303,0.958363636 C0.181030303,0.483818182 0.501636364,0.0990909091 0.897393939,0.0990909091" id="Fill-4" fill="#333333" mask="url(#mask-4)"></path>
                </g>
                <path d="M10.3030303,9.09090909 C10.6378506,9.09090909 10.9090909,9.36234837 10.9090909,9.69684154 C10.9090909,10.031591 10.6378506,10.3030303 10.3030303,10.3030303 C9.96821002,10.3030303 9.6969697,10.031591 9.6969697,9.69684154 C9.6969697,9.36234837 9.96821002,9.09090909 10.3030303,9.09090909" id="Fill-7" fill="#333333"></path>
                <path d="M15.1515152,9.09090909 C15.4863354,9.09090909 15.7575758,9.36234837 15.7575758,9.69684154 C15.7575758,10.031591 15.4863354,10.3030303 15.1515152,10.3030303 C14.8166949,10.3030303 14.5454545,10.031591 14.5454545,9.69684154 C14.5454545,9.36234837 14.8166949,9.09090909 15.1515152,9.09090909" id="Fill-9" fill="#333333"></path>
                <path d="M18.7878788,9.09090909 C19.1226991,9.09090909 19.3939394,9.36234837 19.3939394,9.69684154 C19.3939394,10.031591 19.1226991,10.3030303 18.7878788,10.3030303 C18.4530585,10.3030303 18.1818182,10.031591 18.1818182,9.69684154 C18.1818182,9.36234837 18.4530585,9.09090909 18.7878788,9.09090909" id="Fill-11" fill="#333333"></path>
                <path d="M23.030303,9.09090909 C23.3651233,9.09090909 23.6363636,9.36234837 23.6363636,9.69684154 C23.6363636,10.031591 23.3651233,10.3030303 23.030303,10.3030303 C22.6954827,10.3030303 22.4242424,10.031591 22.4242424,9.69684154 C22.4242424,9.36234837 22.6954827,9.09090909 23.030303,9.09090909" id="Fill-13" fill="#333333"></path>
                <path d="M24.8484848,18.1818182 C25.1833051,18.1818182 25.4545455,18.4532575 25.4545455,18.7877506 C25.4545455,19.1225001 25.1833051,19.3939394 24.8484848,19.3939394 C24.5136646,19.3939394 24.2424242,19.1225001 24.2424242,18.7877506 C24.2424242,18.4532575 24.5136646,18.1818182 24.8484848,18.1818182" id="Fill-15" fill="#333333"></path>
            </g>
        </g>
    </g>
</svg>