<?xml version="1.0" ?><!DOCTYPE svg  PUBLIC '-//W3C//DTD SVG 1.1//EN'  'http://www.w3.org/Graphics/SVG/1.1/DTD/svg11.dtd'><svg height="512px" style="enable-background:new 0 0 512 512;" version="1.1" viewBox="0 0 512 512" width="512px" xml:space="preserve" xmlns="http://www.w3.org/2000/svg" xmlns:xlink="http://www.w3.org/1999/xlink"><g id="_x31_31_x2C__treasure_x2C__chest_x2C__gaming"><g id="XMLID_13788_"><polygon id="XMLID_13789_" points="268.098,346.83 326.175,265.319 292.551,265.319   "/><polygon id="XMLID_13790_" points="199.297,228.041 180.425,256 217.79,256 289.084,256 326.449,256 307.577,228.041   "/><rect height="18.64" id="XMLID_13791_" width="74.557" x="339.876" y="451.711"/><rect height="18.64" id="XMLID_13792_" width="74.557" x="97.567" y="451.711"/><polygon id="XMLID_13793_" points="69.608,442.392 92.907,442.392 176.784,442.392 335.217,442.392 419.093,442.392     442.392,442.392 442.392,414.433 69.608,414.433   "/><polygon id="XMLID_13794_" points="180.978,265.319 241.827,346.452 214.445,265.319   "/><polygon id="XMLID_13795_" points="224.28,265.319 255.273,357.149 282.822,265.319   "/><rect height="37.278" id="XMLID_13796_" width="149.113" x="69.608" y="41.649"/><rect height="37.278" id="XMLID_13797_" width="149.113" x="293.278" y="41.649"/><path d="M218.722,88.247H72.015l23.965,55.918h320.04l23.965-55.918H293.278v23.299    c0,2.574-2.086,4.66-4.66,4.66h-65.237c-2.573,0-4.66-2.086-4.66-4.66V88.247z" id="XMLID_13798_"/><polygon id="XMLID_13799_" points="283.959,83.588 283.959,41.649 228.042,41.649 228.042,83.588 228.042,106.887     283.959,106.887   "/><path d="M92.907,153.484H69.608v27.959h293.566c2.574,0,4.66,2.086,4.66,4.659s-2.086,4.66-4.66,4.66H69.608    v214.351h372.783V153.484h-23.299H92.907z M111.546,372.494H92.907v-18.639h18.639V372.494z M139.505,372.494h-18.639v-18.639    h18.639V372.494z M167.464,372.494h-18.639v-18.639h18.639V372.494z M195.423,372.494h-18.639v-18.639h18.639V372.494z     M223.381,372.494h-18.639v-18.639h18.639V372.494z M307.258,372.494h-18.64v-18.639h18.64V372.494z M335.217,372.494h-18.64    v-18.639h18.64V372.494z M339.865,260.745c-0.002,0.089,0.003,0.179-0.004,0.268c-0.009,0.118-0.031,0.235-0.05,0.354    c-0.014,0.089-0.021,0.18-0.04,0.269c-0.022,0.108-0.06,0.214-0.09,0.321c-0.028,0.096-0.051,0.193-0.084,0.288    c-0.034,0.094-0.081,0.184-0.121,0.275c-0.045,0.104-0.085,0.21-0.139,0.31c-0.002,0.006-0.004,0.012-0.007,0.018    c-0.05,0.095-0.112,0.179-0.167,0.27c-0.053,0.082-0.096,0.167-0.152,0.247l-79.658,111.803c-0.002,0.001-0.002,0.002-0.002,0.003    l-0.022,0.029c-0.124,0.173-0.261,0.333-0.403,0.486c-0.043,0.045-0.088,0.086-0.132,0.128c-0.115,0.114-0.235,0.222-0.362,0.321    c-0.053,0.043-0.105,0.084-0.16,0.124c-0.147,0.107-0.301,0.206-0.459,0.295c-0.032,0.019-0.062,0.039-0.094,0.056    c-0.191,0.102-0.392,0.188-0.597,0.263c-0.054,0.02-0.108,0.035-0.163,0.052c-0.162,0.053-0.325,0.095-0.493,0.13    c-0.062,0.013-0.124,0.025-0.187,0.036c-0.211,0.034-0.425,0.058-0.642,0.062c-0.008,0-0.017,0.003-0.025,0.003    c-0.004,0-0.007,0-0.011,0c-0.003,0-0.007,0.001-0.011,0.001c-0.019,0-0.038,0-0.057,0h-0.001c-0.001,0-0.002,0-0.003,0    c-0.221,0-0.44-0.021-0.656-0.052c-0.066-0.01-0.13-0.022-0.195-0.034c-0.159-0.03-0.313-0.067-0.467-0.113    c-0.061-0.019-0.122-0.034-0.181-0.055c-0.203-0.069-0.401-0.148-0.592-0.245c-0.02-0.01-0.039-0.023-0.059-0.034    c-0.171-0.088-0.334-0.189-0.493-0.299c-0.054-0.037-0.105-0.076-0.157-0.116c-0.126-0.095-0.247-0.196-0.364-0.305    c-0.046-0.044-0.093-0.085-0.138-0.13c-0.149-0.15-0.292-0.309-0.421-0.481l-0.006-0.008c-0.001-0.002-0.002-0.003-0.003-0.005    L167.93,263.455c-0.008-0.011-0.014-0.021-0.021-0.032c-0.07-0.095-0.129-0.197-0.192-0.298c-0.053-0.084-0.11-0.165-0.157-0.251    c-0.005-0.01-0.012-0.019-0.017-0.027c-0.046-0.087-0.078-0.177-0.118-0.265c-0.044-0.098-0.093-0.193-0.13-0.293    c-0.04-0.107-0.067-0.217-0.099-0.326c-0.027-0.094-0.061-0.186-0.082-0.28c-0.026-0.118-0.04-0.237-0.057-0.356    c-0.013-0.09-0.032-0.178-0.04-0.268c-0.01-0.125-0.007-0.251-0.008-0.376c0-0.085-0.008-0.171-0.004-0.255    c0.007-0.139,0.029-0.275,0.048-0.412c0.01-0.072,0.013-0.145,0.026-0.216c0.039-0.208,0.092-0.413,0.159-0.614    c0.017-0.051,0.042-0.099,0.061-0.147c0.056-0.151,0.113-0.302,0.185-0.446c0.002-0.006,0.004-0.011,0.006-0.017    c0.039-0.077,0.088-0.146,0.13-0.22c0.058-0.102,0.11-0.206,0.176-0.304l25.163-37.277c0.866-1.284,2.313-2.053,3.862-2.053    h113.233c1.548,0,2.996,0.769,3.862,2.053l25.163,37.277c0.057,0.084,0.1,0.173,0.15,0.26c0.041,0.071,0.091,0.139,0.129,0.213    c0.006,0.013,0.01,0.026,0.018,0.039c0.055,0.111,0.099,0.226,0.146,0.34c0.033,0.083,0.073,0.165,0.103,0.25    c0.038,0.113,0.064,0.23,0.095,0.347c0.022,0.088,0.051,0.175,0.069,0.265c0.022,0.116,0.031,0.233,0.046,0.351    c0.011,0.091,0.027,0.181,0.032,0.272C339.873,260.507,339.867,260.625,339.865,260.745z M363.175,372.494h-18.639v-18.639h18.639    V372.494z M391.134,372.494h-18.639v-18.639h18.639V372.494z M419.093,372.494h-18.64v-18.639h18.64V372.494z" id="XMLID_13800_"/></g></g><g id="Layer_1"/></svg>